<?xml version="1.0" standalone="no"?>
<!DOCTYPE svg PUBLIC "-//W3C//DTD SVG 20010904//EN"
 "http://www.w3.org/TR/2001/REC-SVG-20010904/DTD/svg10.dtd">
<svg version="1.0" xmlns="http://www.w3.org/2000/svg"
 width="25.000000pt" height="25.000000pt" viewBox="0 0 25.000000 25.000000"
 preserveAspectRatio="xMidYMid meet">

<g transform="translate(0.000000,25.000000) scale(0.100000,-0.100000)"
fill="#000000" stroke="none">
<path d="M3 123 l-1 -124 122 3 121 3 3 121 3 122 -124 -1 -124 0 0 -124z m87
106 c12 -9 10 -10 -8 -6 -20 5 -22 3 -10 -11 7 -9 8 -14 4 -10 -13 11 -37 -12
-29 -26 4 -6 0 -5 -9 2 -14 12 -16 10 -11 -10 4 -18 3 -20 -6 -8 -15 22 -14
28 14 55 27 28 33 29 55 14z m96 -10 c13 -12 20 -28 17 -37 -4 -10 -2 -13 6
-8 9 6 10 1 5 -19 -4 -17 -1 -32 9 -43 10 -11 13 -23 8 -31 -7 -10 -9 -10 -14
2 -6 17 -57 29 -54 13 1 -6 -3 -10 -10 -9 -7 2 -9 -6 -4 -24 10 -36 29 -41 27
-7 0 15 5 29 12 31 7 3 12 -5 12 -21 0 -27 -36 -60 -54 -48 -6 3 -20 6 -31 4
l-20 -2 20 10 c16 8 13 9 -16 5 -29 -4 -40 0 -62 23 -24 25 -26 33 -18 55 6
15 16 27 23 27 9 0 10 -3 2 -8 -6 -4 -15 -18 -19 -32 -4 -14 -4 -22 0 -18 4 4
19 -2 33 -12 13 -11 38 -20 54 -20 25 0 28 3 23 23 -8 29 16 51 45 42 17 -5
20 -2 20 25 0 49 -68 105 -83 68 -4 -10 -6 -10 -6 0 -1 7 9 17 22 22 30 12 28
13 53 -11z m-70 -74 c-3 -8 -11 -15 -18 -14 -10 0 -10 2 0 6 6 2 12 14 13 26
0 12 3 16 6 9 3 -7 2 -19 -1 -27z m117 -126 c-17 -17 -37 -1 -22 17 8 10 15
12 23 4 7 -7 7 -13 -1 -21z"/>
<path d="M151 227 c2 -1 15 -11 29 -22 l25 -20 -19 23 c-11 12 -24 22 -29 22
-6 0 -8 -1 -6 -3z"/>
<path d="M47 59 c12 -12 24 -21 27 -18 2 2 -8 13 -22 23 l-27 19 22 -24z"/>
</g>
</svg>
